<svg xmlns="http://www.w3.org/2000/svg" width="800" height="400" viewBox="0 0 800 400">
<defs>
  <linearGradient id="ag" x1="0" y1="0" x2="0" y2="1">
    <stop offset="0%" stop-color="#f43f5e" stop-opacity="0.22"/>
    <stop offset="100%" stop-color="#f43f5e" stop-opacity="0.01"/>
  </linearGradient>
  <linearGradient id="lg" x1="0" y1="0" x2="1" y2="0">
    <stop offset="0%" stop-color="#e11d48"/>
    <stop offset="100%" stop-color="#fb7185"/>
  </linearGradient>
</defs>

<rect width="800" height="400" rx="14" fill="#fff"/>

<text x="400" y="30" text-anchor="middle" font-family="system-ui, -apple-system, 'Segoe UI', sans-serif" font-size="17" font-weight="700" fill="#1f2937">Date-Match 用户增长</text>
<text x="400" y="50" text-anchor="middle" font-family="system-ui, -apple-system, 'Segoe UI', sans-serif" font-size="12" fill="#9ca3af">累计 1,694 位用户 · 上线 4 天</text>

<line x1="65" y1="350.0" x2="750" y2="350.0" stroke="#e5e7eb" stroke-width="1"/>
<text x="55" y="354.0" text-anchor="end" font-family="system-ui, -apple-system, 'Segoe UI', sans-serif" font-size="10" fill="#b0b0b0">0</text>
<line x1="65" y1="294.0" x2="750" y2="294.0" stroke="#f3f4f6" stroke-width="1"/>
<text x="55" y="298.0" text-anchor="end" font-family="system-ui, -apple-system, 'Segoe UI', sans-serif" font-size="10" fill="#b0b0b0">400</text>
<line x1="65" y1="238.0" x2="750" y2="238.0" stroke="#f3f4f6" stroke-width="1"/>
<text x="55" y="242.0" text-anchor="end" font-family="system-ui, -apple-system, 'Segoe UI', sans-serif" font-size="10" fill="#b0b0b0">800</text>
<line x1="65" y1="182.0" x2="750" y2="182.0" stroke="#f3f4f6" stroke-width="1"/>
<text x="55" y="186.0" text-anchor="end" font-family="system-ui, -apple-system, 'Segoe UI', sans-serif" font-size="10" fill="#b0b0b0">1,200</text>
<line x1="65" y1="126.0" x2="750" y2="126.0" stroke="#f3f4f6" stroke-width="1"/>
<text x="55" y="130.0" text-anchor="end" font-family="system-ui, -apple-system, 'Segoe UI', sans-serif" font-size="10" fill="#b0b0b0">1,600</text>
<line x1="65" y1="70.0" x2="750" y2="70.0" stroke="#f3f4f6" stroke-width="1"/>
<text x="55" y="74.0" text-anchor="end" font-family="system-ui, -apple-system, 'Segoe UI', sans-serif" font-size="10" fill="#b0b0b0">2,000</text>
<path d="M65.0,348.5C133.5,345.4,156.3,344.4,293.3,338.4C430.3,332.4,384.7,350.0,521.7,328.4C658.7,260.8,681.5,177.5,750.0,112.8L750.0,350L65.0,350Z" fill="url(#ag)"/>
<path d="M65.0,348.5C133.5,345.4,156.3,344.4,293.3,338.4C430.3,332.4,384.7,350.0,521.7,328.4C658.7,260.8,681.5,177.5,750.0,112.8" fill="none" stroke="url(#lg)" stroke-width="2.8" stroke-linecap="round" stroke-linejoin="round"/>
<circle cx="65.0" cy="348.5" r="4.5" fill="#fff" stroke="#f43f5e" stroke-width="2"/>
<text x="65.0" y="336.5" text-anchor="middle" font-family="system-ui, -apple-system, 'Segoe UI', sans-serif" font-size="11" font-weight="600" fill="#e11d48">11</text>
<circle cx="293.3" cy="338.4" r="4.5" fill="#fff" stroke="#f43f5e" stroke-width="2"/>
<text x="293.3" y="326.4" text-anchor="middle" font-family="system-ui, -apple-system, 'Segoe UI', sans-serif" font-size="11" font-weight="600" fill="#e11d48">83</text>
<circle cx="521.7" cy="328.4" r="4.5" fill="#fff" stroke="#f43f5e" stroke-width="2"/>
<text x="521.7" y="316.4" text-anchor="middle" font-family="system-ui, -apple-system, 'Segoe UI', sans-serif" font-size="11" font-weight="600" fill="#e11d48">154</text>
<circle cx="750.0" cy="112.8" r="4.5" fill="#fff" stroke="#f43f5e" stroke-width="2"/>
<text x="750.0" y="100.8" text-anchor="middle" font-family="system-ui, -apple-system, 'Segoe UI', sans-serif" font-size="11" font-weight="600" fill="#e11d48">1,694</text>
<text x="65.0" y="370.0" text-anchor="middle" font-family="system-ui, -apple-system, 'Segoe UI', sans-serif" font-size="10" fill="#9ca3af">2/23</text>
<text x="293.3" y="370.0" text-anchor="middle" font-family="system-ui, -apple-system, 'Segoe UI', sans-serif" font-size="10" fill="#9ca3af">2/24</text>
<text x="521.7" y="370.0" text-anchor="middle" font-family="system-ui, -apple-system, 'Segoe UI', sans-serif" font-size="10" fill="#9ca3af">2/25</text>
<text x="750.0" y="370.0" text-anchor="middle" font-family="system-ui, -apple-system, 'Segoe UI', sans-serif" font-size="10" fill="#9ca3af">2/26</text>
<text x="750" y="392" text-anchor="end" font-family="system-ui, -apple-system, 'Segoe UI', sans-serif" font-size="9" fill="#d1d5db">Updated 2026-02-26</text>
</svg>